<svg xmlns="http://www.w3.org/2000/svg" viewBox="0 0 24 24">
    <g id="surface1">
        <path style=" stroke:none;fill-rule:evenodd;fill:rgb(48.627451%,79.215686%,81.960784%);fill-opacity:1;"
              d="M 9.441406 16.71875 C 9.28125 16.71875 9.199219 16.71875 9.121094 16.71875 C 9.039062 16.71875 8.878906 16.71875 8.800781 16.71875 C 8.71875 16.71875 8.71875 16.71875 8.640625 16.71875 C 8.558594 16.71875 8.320312 16.71875 8.238281 16.640625 C 7.921875 16.640625 7.601562 16.640625 7.359375 16.558594 C 7.28125 16.558594 7.28125 16.558594 7.199219 16.558594 C 7.199219 16.558594 7.199219 16.558594 7.121094 16.558594 C 7.121094 16.480469 7.039062 16.078125 7.039062 16 C 7.039062 15.921875 6.960938 15.839844 6.960938 15.761719 C 6.960938 15.679688 6.960938 15.601562 6.960938 15.601562 C 6.960938 15.519531 6.960938 15.441406 6.960938 15.441406 C 6.960938 15.199219 6.960938 15.039062 6.960938 14.800781 C 6.960938 14.800781 6.960938 14.71875 6.960938 14.71875 L 6.960938 14.238281 C 6.960938 14.078125 6.960938 14 6.960938 13.921875 C 6.960938 13.839844 6.960938 13.839844 6.960938 13.761719 L 6.960938 12.878906 C 6.960938 12.640625 7.039062 12.160156 7.121094 11.921875 C 7.199219 11.199219 7.359375 10.480469 7.601562 9.839844 C 7.761719 9.441406 8 8.960938 8.238281 8.558594 L 8.558594 8 C 8.558594 7.921875 8.558594 7.921875 8.558594 7.921875 C 8.71875 7.761719 8.800781 7.601562 8.960938 7.441406 L 9.121094 7.199219 C 9.199219 7.039062 9.519531 6.800781 9.601562 6.71875 C 9.601562 6.640625 9.601562 6.640625 9.679688 6.640625 C 9.839844 6.480469 10 6.320312 10.238281 6.238281 C 10.480469 6.078125 10.71875 5.921875 11.039062 5.761719 C 11.679688 5.519531 12.398438 5.359375 13.199219 5.441406 C 13.761719 5.441406 14.238281 5.601562 14.71875 5.761719 C 15.199219 5.921875 15.601562 6.160156 16 6.398438 L 16.398438 6.71875 L 16.71875 7.039062 C 16.800781 7.121094 16.878906 7.199219 16.960938 7.28125 L 17.121094 7.441406 C 17.121094 7.519531 17.199219 7.601562 17.28125 7.679688 C 17.28125 7.679688 17.28125 7.679688 17.28125 7.761719 C 17.441406 8 17.601562 8.238281 17.679688 8.480469 C 17.761719 8.558594 17.839844 8.71875 17.921875 8.878906 C 18 9.039062 18 9.199219 18.078125 9.359375 C 18.160156 9.601562 18.160156 9.921875 18.238281 10.160156 L 18.238281 10.398438 C 18.238281 10.558594 18.238281 10.800781 18.238281 11.039062 L 18.238281 11.359375 C 18.160156 11.921875 17.921875 12.640625 17.601562 13.121094 L 17.199219 13.761719 C 17.039062 13.921875 16.878906 14.078125 16.71875 14.238281 C 16.398438 14.640625 15.921875 14.960938 15.519531 15.199219 L 15.199219 15.441406 C 15.039062 15.519531 14.800781 15.601562 14.640625 15.679688 C 14.480469 15.761719 14.398438 15.839844 14.238281 15.839844 L 13.921875 16 C 13.199219 16.238281 12.160156 16.480469 11.519531 16.558594 C 11.359375 16.558594 11.28125 16.640625 11.199219 16.640625 C 11.121094 16.640625 11.121094 16.640625 11.039062 16.640625 C 11.039062 16.640625 10.960938 16.640625 10.960938 16.640625 C 10.800781 16.640625 10.480469 16.640625 10.320312 16.71875 C 10.238281 16.71875 10.160156 16.71875 10 16.71875 Z M 11.839844 21.921875 L 11.679688 21.921875 C 11.601562 21.921875 11.601562 21.839844 11.519531 21.839844 C 11.359375 21.839844 11.121094 21.839844 10.960938 21.839844 C 10.878906 21.839844 10.800781 21.839844 10.640625 21.839844 C 10.320312 21.761719 9.921875 21.679688 9.601562 21.601562 C 8.960938 21.441406 8.320312 21.199219 7.679688 20.960938 C 7.679688 20.960938 7.601562 20.960938 7.601562 20.878906 C 7.519531 20.878906 7.519531 20.878906 7.519531 20.878906 C 7.441406 20.800781 7.359375 20.800781 7.28125 20.71875 C 7.039062 20.640625 6.878906 20.480469 6.640625 20.398438 C 6.640625 20.398438 6.640625 20.320312 6.558594 20.320312 L 6.160156 20.078125 C 6 19.921875 5.839844 19.839844 5.601562 19.679688 L 4.960938 19.121094 C 4.800781 18.960938 4.480469 18.640625 4.398438 18.558594 L 3.601562 17.519531 C 3.359375 17.121094 2.960938 16.480469 2.71875 16.078125 L 2.640625 15.839844 C 2.558594 15.679688 2.480469 15.519531 2.480469 15.359375 C 2.238281 14.800781 2.160156 14.558594 2 13.921875 C 1.921875 13.679688 1.921875 13.359375 1.839844 13.121094 C 1.839844 13.039062 1.839844 12.960938 1.839844 12.800781 C 1.761719 12.398438 1.761719 12.078125 1.761719 11.601562 C 1.761719 11.519531 1.761719 11.441406 1.761719 11.359375 C 1.761719 11.121094 1.839844 10.640625 1.839844 10.480469 C 1.921875 9.921875 2 9.359375 2.160156 8.878906 C 2.238281 8.558594 2.320312 8.320312 2.398438 8 C 2.480469 8 2.480469 7.921875 2.480469 7.921875 C 2.558594 7.679688 2.640625 7.441406 2.800781 7.199219 C 2.960938 6.878906 3.121094 6.558594 3.359375 6.238281 L 3.519531 5.921875 C 3.679688 5.679688 3.839844 5.519531 4 5.28125 L 4.320312 4.960938 C 4.320312 4.878906 4.480469 4.71875 4.480469 4.71875 C 4.640625 4.558594 4.800781 4.398438 4.878906 4.320312 C 4.960938 4.238281 5.039062 4.160156 5.121094 4.078125 L 5.359375 3.921875 C 5.359375 3.921875 5.359375 3.921875 5.359375 3.839844 C 5.519531 3.761719 5.761719 3.519531 5.921875 3.441406 L 6.238281 3.199219 C 6.480469 3.039062 6.71875 2.878906 7.039062 2.71875 L 7.28125 2.558594 C 7.519531 2.480469 7.679688 2.398438 7.839844 2.320312 L 8.160156 2.160156 C 8.398438 2.078125 8.640625 2 8.878906 1.921875 C 9.441406 1.761719 10.078125 1.601562 10.71875 1.519531 C 12.078125 1.359375 13.519531 1.441406 14.800781 1.839844 C 15.441406 2 16.078125 2.320312 16.640625 2.558594 C 16.800781 2.640625 16.960938 2.800781 17.199219 2.878906 C 17.441406 3.039062 17.921875 3.359375 18.238281 3.601562 C 18.398438 3.679688 18.480469 3.761719 18.640625 3.921875 C 18.640625 3.921875 18.640625 3.921875 18.71875 3.921875 L 18.878906 4.160156 C 18.960938 4.160156 18.960938 4.160156 18.960938 4.238281 C 19.121094 4.320312 19.601562 4.800781 19.679688 4.960938 L 20 5.28125 C 20.160156 5.601562 20.398438 5.839844 20.558594 6.160156 C 20.71875 6.320312 20.878906 6.558594 20.960938 6.800781 C 21.28125 7.441406 21.601562 8.160156 21.839844 8.878906 C 22 9.519531 22.160156 10.238281 22.160156 10.878906 C 22.160156 10.960938 22.160156 10.960938 22.160156 10.960938 L 22.160156 12.238281 C 22.160156 12.398438 22.160156 12.558594 22.160156 12.71875 C 22.160156 12.800781 22.160156 12.800781 22.160156 12.878906 C 22.078125 13.199219 22 13.601562 21.921875 13.921875 C 21.921875 14.078125 21.839844 14.320312 21.839844 14.480469 C 21.679688 14.878906 21.601562 15.28125 21.441406 15.601562 L 21.199219 16.078125 C 21.121094 16.238281 21.039062 16.480469 20.878906 16.640625 C 20.878906 16.640625 20.878906 16.640625 20.878906 16.71875 C 20.480469 17.359375 20.320312 17.601562 19.921875 18.078125 C 19.839844 18.238281 19.679688 18.320312 19.601562 18.480469 C 19.601562 18.480469 19.601562 18.480469 19.519531 18.558594 L 18.800781 19.28125 C 18.640625 19.441406 18.398438 19.601562 18.238281 19.761719 C 18.160156 19.839844 18.078125 19.839844 18 19.921875 C 17.601562 20.238281 17.121094 20.480469 16.640625 20.71875 L 16 21.039062 C 15.441406 21.28125 14.960938 21.441406 14.320312 21.601562 C 14.238281 21.601562 14.160156 21.679688 14.078125 21.679688 C 13.359375 21.839844 12.640625 21.921875 11.839844 21.921875 Z M 11.839844 21.921875 "/>
        <path style=" stroke:none;fill-rule:evenodd;fill:rgb(48.627451%,79.215686%,81.960784%);fill-opacity:1;"
              d="M 10.078125 10.480469 C 10.078125 10.480469 10.320312 10.558594 10.320312 10.640625 C 10.398438 10.640625 10.480469 10.71875 10.558594 10.71875 L 11.519531 11.199219 C 11.519531 11.199219 11.601562 11.199219 11.601562 11.28125 L 11.921875 11.359375 C 12.238281 11.519531 12.160156 11.441406 12.238281 11.761719 C 12.558594 12.320312 12.800781 12.878906 13.121094 13.441406 C 13.121094 13.441406 13.121094 13.441406 13.121094 13.519531 C 13.121094 13.519531 13.121094 13.519531 13.199219 13.519531 C 13.199219 13.519531 13.28125 13.199219 13.359375 13.199219 L 14 11.839844 C 14 11.839844 14 11.761719 14 11.761719 C 14.160156 11.519531 14.078125 11.519531 14.238281 11.441406 L 14.558594 11.28125 C 14.558594 11.28125 14.640625 11.28125 14.640625 11.28125 L 15.679688 10.71875 C 15.761719 10.71875 16.160156 10.480469 16.238281 10.480469 L 14.160156 9.519531 L 13.199219 7.601562 C 13.199219 7.519531 13.199219 7.441406 13.121094 7.441406 L 13.039062 7.679688 C 13.039062 7.761719 12.960938 7.761719 12.960938 7.839844 C 12.960938 7.839844 12.960938 7.921875 12.878906 7.921875 L 12.640625 8.480469 C 12.640625 8.480469 12.640625 8.558594 12.558594 8.558594 C 12.558594 8.640625 12.558594 8.640625 12.558594 8.71875 L 12.238281 9.199219 C 12.238281 9.28125 12.160156 9.441406 12.160156 9.519531 C 12.160156 9.519531 11.679688 9.679688 11.601562 9.761719 L 10.238281 10.398438 C 10.160156 10.480469 10.160156 10.480469 10.078125 10.480469 Z M 10.078125 10.480469 "/>
        <path style=" stroke:none;fill-rule:nonzero;fill:rgb(16.862745%,16.470588%,16.078431%);fill-opacity:1;"
              d="M 13.921875 22.71875 L 11.039062 22.71875 L 10.640625 19.921875 L 5.601562 19.921875 L 4 22.71875 L 1.121094 22.71875 L 8.878906 8.878906 L 12.160156 8.878906 Z M 10.480469 17.601562 L 9.839844 12.160156 L 6.960938 17.601562 Z M 10.480469 17.601562 "/>
    </g>
</svg>