<?xml version="1.0" encoding="utf-8"?>
<!-- Generator: Adobe Illustrator 19.2.1, SVG Export Plug-In . SVG Version: 6.00 Build 0)  -->
<svg version="1.0" id="raster_layer" xmlns="http://www.w3.org/2000/svg" xmlns:xlink="http://www.w3.org/1999/xlink" x="0px"
	 y="0px" viewBox="0 0 24 24" style="enable-background:new 0 0 24 24;" xml:space="preserve">
<style type="text/css">
	.st0{fill:#3498DB;}
	.st1{fill:#DCE8F3;}
	.st2{display:none;fill:#7CCAD1;}
	.st3{fill:#FFFCFC;}
	.st4{fill:#7CCAD1;}
</style>
<path id="path3384" class="st0" d="M12,12H0V2.4C0,1.1,1.1,0,2.4,0H12V12L12,12z"/>
<path id="path3390" class="st1" d="M24,12H12V0h9.6C22.9,0,24,1.1,24,2.4V12z"/>
<path id="path3390-9" class="st1" d="M12,24V12H0v9.6C0,22.9,1.1,24,2.4,24H12z"/>
<path id="path3384-2" class="st0" d="M24,21.6V12H12v12h9.6C22.9,24,24,22.9,24,21.6z"/>
<path class="st2" d="M-456,290.6h-0.3c-0.2,0-0.4,0-0.6,0h-0.3c-0.3,0-0.7-0.1-1-0.2c-0.6-0.1-1.2-0.4-1.8-0.6h-0.1h-0.1l-0.2-0.1
	c-0.2-0.1-0.4-0.2-0.6-0.3l-0.1-0.1l-0.3-0.4c-0.2-0.1-0.3-0.3-0.5-0.4l-0.6-0.5l0,0c-0.2-0.2-0.5-0.5-0.6-0.6l-0.7-0.9
	c-0.3-0.4-0.6-0.9-0.8-1.4l-0.1-0.2c-0.1-0.1-0.1-0.3-0.2-0.4c-0.2-0.4-0.3-0.9-0.4-1.4c-0.1-0.3-0.1-0.5-0.1-0.8c0-0.1,0-0.2,0-0.3
	c0-0.4-0.1-0.7-0.1-1.1l0,0c0-0.1,0-0.2,0-0.3c0-0.1,0-0.6,0.1-0.8c0.1-0.5,0.2-1,0.3-1.5c0.1-0.3,0.2-0.5,0.3-0.8v-0.1
	c0.1-0.2,0.2-0.4,0.3-0.6c0.2-0.4,0.3-0.6,0.5-1l0.2-0.3c0.1-0.2,0.3-0.4,0.5-0.6l0.3-0.3l0.2-0.3c0.1-0.1,0.3-0.3,0.4-0.4l0.2-0.2
	l0.2-0.1l0,0c0.2-0.2,0.4-0.3,0.6-0.5l0.3-0.2c0.3-0.1,0.5-0.3,0.8-0.5l0.3-0.2c0.2-0.1,0.3-0.2,0.5-0.2l0.3-0.1l0.7-0.2
	c0.6-0.2,1.2-0.3,1.8-0.4c1.9-0.2,3.9,0.1,5.6,1l0.5,0.3c0.3,0.2,0.7,0.4,1,0.7c0.1,0.1,0.3,0.2,0.4,0.3l0,0l0.2,0.2l0.1,0.1
	c0.1,0.1,0.6,0.6,0.7,0.7l0.3,0.3c0.2,0.3,0.4,0.5,0.6,0.8c0.2,0.3,0.3,0.4,0.4,0.6c0.3,0.6,0.6,1.3,0.8,2c0.2,0.6,0.3,1.2,0.3,1.9
	c0,0,0,0,0,0.1v1.2c0,0.1,0,0.3,0,0.4s0,0.1,0,0.1c0,0.3-0.1,0.7-0.2,1c0,0.2-0.1,0.3-0.1,0.5c-0.1,0.4-0.2,0.7-0.4,1.1l-0.2,0.4
	c-0.1,0.2-0.2,0.4-0.3,0.5l0,0c-0.3,0.5-0.6,0.9-0.9,1.3l-0.3,0.3l-0.1,0.1l-0.7,0.7c-0.2,0.2-0.4,0.3-0.6,0.5l-0.2,0.1
	c-0.4,0.3-0.8,0.6-1.3,0.8l-0.6,0.3c-0.5,0.2-1,0.4-1.6,0.5l-0.3,0C-454.6,290.5-455.3,290.5-456,290.6L-456,290.6L-456,290.6z"/>
<path class="st3" d="M12,14.8h-0.3c-0.1,0-0.2,0-0.3,0h-0.1h-0.4c-0.3,0-0.6-0.1-0.8-0.1H10H9.9c0,0,0,0-0.1,0c0,0-0.1-0.4-0.1-0.5
	s0-0.2,0-0.3v-0.2c0,0,0-0.1,0-0.1c0-0.2,0-0.4,0-0.6c0,0,0-0.1,0-0.1v-0.4c0-0.1,0-0.2,0-0.3s0-0.1,0-0.1v-0.8
	c0-0.3,0.1-0.7,0.1-0.9C10,9.6,10.1,9,10.3,8.4c0.2-0.4,0.3-0.9,0.6-1.3l0.3-0.5l0.1-0.1c0.1-0.2,0.2-0.3,0.3-0.4l0.2-0.2l0,0
	c0.1-0.2,0.3-0.3,0.4-0.5l0,0l0,0c0.2-0.1,0.3-0.3,0.5-0.4c0.2-0.2,0.5-0.3,0.8-0.4c0.6-0.3,1.3-0.4,2-0.3c0.9,0.1,1.9,0.4,2.6,0.9
	l0.5,0.2l0,0l0.3,0.3C18.9,5.7,19,5.8,19,5.9l0.2,0.2l0.1,0.2l0.1,0.1c0.1,0.2,0.3,0.4,0.4,0.7c0.1,0.1,0.1,0.3,0.2,0.4
	c0,0.2,0.1,0.3,0.1,0.4c0.1,0.2,0.1,0.5,0.1,0.8v0.2c0,0.2,0,0.4,0,0.6v0.3c-0.1,0.6-0.3,1.2-0.5,1.7L19.3,12
	c-0.1,0.2-0.3,0.3-0.4,0.5c-0.4,0.3-0.7,0.6-1.2,0.9l-0.3,0.2c-0.2,0.1-0.3,0.2-0.5,0.3L16.5,14l-0.3,0.1c-0.7,0.3-1.5,0.4-2.3,0.6
	h-0.3h-0.1h-0.1h-0.6h-0.3L12,14.8L12,14.8z"/>
<path class="st4" d="M12.7,8.9c0.1,0,0.2,0.1,0.2,0.1l0.2,0.1L14,9.6l0.1,0.1l0.2,0.1c0.2,0,0.3,0.2,0.4,0.4
	c0.3,0.5,0.5,1.1,0.8,1.6v0.1c0,0,0,0,0,0.1c0,0,0.1-0.3,0.2-0.4l0.6-1.2l0.1-0.1c0.1-0.2,0.1-0.2,0.2-0.3l0.2-0.1l0.1-0.1l1-0.5
	C18,9.2,18.3,9,18.4,9l-1.9-1l-0.9-1.8c0,0,0-0.1-0.1-0.1l-0.1,0.2l-0.1,0.1l-0.1,0.1L15,7v0.2l-0.1,0.1l-0.2,0.5L14.6,8l-0.5,0.2
	l-1.3,0.6L12.7,8.9C12.7,8.9,12.7,8.9,12.7,8.9z"/>
</svg>