<svg xmlns="http://www.w3.org/2000/svg" viewBox="0 0 24 24">
    <g>
        <path style="stroke:none;fill:#0da861;fill-opacity:1;"
              d="M9.69,17.74a0.62,0.62,0,0,0-.08-0.11c-0.13-.16-0.31-0.39-0.42-0.55l-0.32-.47a10.64,10.64,0,0,1-.69-1.26,10.47,10.47,0,0,1-.44-1.12c0-.12-0.15-0.49-0.18-0.6a2.53,2.53,0,0,0-.45,0l-0.43.06a6.57,6.57,0,0,0-1.35.36L5,14.22l-0.32.17-0.15.09a4.4,4.4,0,0,0-.49.37,4.21,4.21,0,0,0-.63.71l-0.1.15-0.14.23,0,0.08c-0.07.12-.18,0.36-0.24,0.49-0.21.5-.28,0.76-0.45,1.26-0.08.23-.15,0.52-0.23,0.75a6.29,6.29,0,0,1-1.11,2.3l0,0L1,21A0.66,0.66,0,0,1,.89,21l-0.23.2a3.43,3.43,0,0,1-.59.39,0.19,0.19,0,0,0-.08,0,19.54,19.54,0,0,0,6-.78,9.25,9.25,0,0,0,1.2-.5l0.4-.23c0.15-.09.3-0.19,0.44-0.3l0.41-.34a2.85,2.85,0,0,0,.21-0.21,4.46,4.46,0,0,0,.57-0.71l0.08-.13a4.22,4.22,0,0,0,.22-0.43l0.06-.15,0.06-.16h0Z"/>
        <path style="stroke:none;fill:#afcae4;fill-opacity:1;"
              d="M18.77,2.08l0.65,0.23A10.67,10.67,0,0,1,21,3.11l0.14,0.08,0,0L21.32,3c0.28-.4.56-0.8,0.83-1.2l0.4-.62,0.07-.1A0.89,0.89,0,0,0,22.76.7,0.62,0.62,0,0,0,22.37.08,0.76,0.76,0,0,0,22,0H22a1.12,1.12,0,0,0-.44.11l0,0,0,0-0.29.22L21,0.55l-0.29.22-0.1.07-0.9.64-0.1.07-0.2.14-0.62.41h0Z"/>
        <path style="stroke:none;fill:#7ccad1;fill-opacity:1;"
              d="M14.3,19.65H14c-0.17,0-.4,0-0.56,0l-0.26,0a9.65,9.65,0,0,1-1-.19,9.83,9.83,0,0,1-1.77-.61l-0.11,0-0.1,0-0.2-.1c-0.2-.1-0.39-0.21-0.57-0.32l-0.1-.06L9,18c-0.18-.12-0.35-0.25-0.52-0.38l-0.6-.52,0,0C7.69,16.9,7.39,16.61,7.3,16.5l-0.73-.91a10.16,10.16,0,0,1-.83-1.41L5.65,14c-0.06-.14-0.13-0.28-0.18-0.42a9.71,9.71,0,0,1-.42-1.37c-0.06-.25-0.1-0.51-0.14-0.76,0-.09,0-0.17,0-0.26,0-.41-0.06-0.71-0.07-1.12h0c0-.1,0-0.18,0-0.29s0-.62.06-0.83a9.38,9.38,0,0,1,.3-1.5c0.08-.26.16-0.53,0.26-0.78l0-.11a6.27,6.27,0,0,1,.27-0.62c0.19-.37.33-0.62,0.54-1l0.18-.27c0.14-.21.29-0.41,0.45-0.6l0.27-.32L7.4,3.5c0.09-.11.26-0.27,0.37-0.37L8,2.91l0.16-.14,0,0A6.3,6.3,0,0,1,8.75,2.3L9,2.12C9.25,2,9.49,1.8,9.75,1.66L10,1.51c0.17-.08.33-0.17,0.51-0.24l0.32-.13,0.66-.24A9.11,9.11,0,0,1,13.24.52a9.58,9.58,0,0,1,5.57,1l0.48,0.27a8.75,8.75,0,0,1,1,.66c0.14,0.11.28,0.22,0.41,0.34l0,0L20.92,3,21,3.06c0.1,0.08.56,0.56,0.66,0.69l0.27,0.32c0.2,0.25.39,0.52,0.56,0.79s0.25,0.4.36,0.61a9.68,9.68,0,0,1,.8,2A9.23,9.23,0,0,1,24,9.33s0,0,0,.07v1.23c0,0.14,0,.28,0,0.41s0,0.08,0,.13c0,0.34-.1.69-0.17,1,0,0.16-.08.33-0.12,0.48a9.46,9.46,0,0,1-.39,1.11l-0.18.41a5.91,5.91,0,0,1-.28.54l0,0a10.14,10.14,0,0,1-.91,1.33l-0.27.32-0.07.08-0.68.67c-0.18.17-.37,0.32-0.57,0.48l-0.17.13a8.41,8.41,0,0,1-1.29.8l-0.61.29a10.41,10.41,0,0,1-1.57.52l-0.25.05a10.18,10.18,0,0,1-2.09.2h0Z"/>
        <path style="stroke:none;fill:#fffcfc;fill-opacity:1;"
              d="M12,14.8H11.72c-0.09,0-.2,0-0.29,0H11.29l-0.41,0c-0.25,0-.55-0.05-0.8-0.08l-0.13,0H9.89a0.07,0.07,0,0,1-.06,0s-0.06-.43-0.07-0.51,0-.18,0-0.26V13.72s0-.1,0-0.13a4.64,4.64,0,0,1,0-.56s0-.08,0-0.14V12.46c0-.11,0-0.19,0-0.28s0-.1,0-0.15l0-.84c0-.25.07-0.69,0.11-0.92a11.16,11.16,0,0,1,.47-1.9,8.23,8.23,0,0,1,.57-1.27l0.31-.51,0.06-.09c0.1-.15.21-0.29,0.31-0.43l0.16-.2,0,0a6.07,6.07,0,0,1,.44-0.46l0,0,0,0a5.71,5.71,0,0,1,.5-0.38,4.28,4.28,0,0,1,.77-0.41,4.73,4.73,0,0,1,2-.34,5,5,0,0,1,2.62.92L18.55,5.4l0,0,0.26,0.26c0.07,0.08.15,0.15,0.21,0.23l0.17,0.2,0.13,0.17,0.06,0.09a6.14,6.14,0,0,1,.38.65,3.86,3.86,0,0,1,.18.41c0.05,0.15.1,0.29,0.15,0.45a4.28,4.28,0,0,1,.14.75l0,0.2a3.61,3.61,0,0,1,0,.64l0,0.27a4.51,4.51,0,0,1-.54,1.67L19.3,12a6.21,6.21,0,0,1-.43.46,6.58,6.58,0,0,1-1.17.9l-0.28.16a4.75,4.75,0,0,1-.49.25L16.53,14l-0.32.12a10.88,10.88,0,0,1-2.26.55l-0.26,0-0.13,0H13.42l-0.55,0H12.58L12,14.8h0Z"/>
        <path style="stroke:none;fill:#7ccad1;fill-opacity:1;"
              d="M12.65,8.94a1.3,1.3,0,0,0,.24.12l0.24,0.12L14,9.6l0.12,0.06,0.24,0.12a0.44,0.44,0,0,1,.36.36c0.26,0.52.51,1.06,0.77,1.57l0,0.06a0.06,0.06,0,0,0,0,.06s0.14-.3.17-0.36l0.59-1.21,0.06-.12c0.12-.24.06-0.22,0.23-0.3l0.24-.12,0.12-.06,1-.47C18,9.16,18.34,9,18.39,9L16.46,8,15.58,6.2a0.39,0.39,0,0,0-.07-0.12l-0.11.24-0.06.12-0.06.12L15,7,15,7.17l-0.06.12-0.23.48L14.58,8l-0.48.24-1.33.64-0.12.06h0Z"/>
    </g>

</svg>